PathFileType  4	(X/Y/Z) /Users/kristensteudel/Documents/NMBL_Research/BertecForceProcessing/anc_files/
DataRate	CameraRate	NumFrames	NumMarkers	Units	OrigDataRate	OrigDataStartFrame	OrigNumFrames
  200.0		  200.0		    8		     46		 mm	  200.0	      360	    718
Frame#	Time	r_knee			r_shank_antsup			r_ankle			r_calc			r_5meta			r_toe			L_knee			L_shank_antsup			L_ankle			L_calc			L_5meta			L_toe			r_sh2			r_sh3			r_sh4			L_sh2			L_sh3			r_thigh1			r_thigh2			r_thigh3			r_thigh4			r_thigh5			L_thigh1			L_thigh2			L_thigh3			L_thigh4			r.ASIS			r.PSIS			L.ASIS			L.PSIS			C7			R_Shoulder			L_Shoulder			Sternum			R_humerus			R_elbow_med			R_elbow_lat			R_forearm			R_wrist_radius			R_wrist_ulna			L_humerus			L_elbow_med			L_elbow_lat			L_forearm			L_wrist_radius			L_wrist_ulna			
		X1	Y1	Z1	X2	Y2	Z2	X3	Y3	Z3	X4	Y4	Z4	X5	Y5	Z5	X6	Y6	Z6	X7	Y7	Z7	X8	Y8	Z8	X9	Y9	Z9	X10	Y10	Z10	X11	Y11	Z11	X12	Y12	Z12	X13	Y13	Z13	X14	Y14	Z14	X15	Y15	Z15	X16	Y16	Z16	X17	Y17	Z17	X18	Y18	Z18	X19	Y19	Z19	X20	Y20	Z20	X21	Y21	Z21	X22	Y22	Z22	X23	Y23	Z23	X24	Y24	Z24	X25	Y25	Z25	X26	Y26	Z26	X27	Y27	Z27	X28	Y28	Z28	X29	Y29	Z29	X30	Y30	Z30	X31	Y31	Z31	X32	Y32	Z32	X33	Y33	Z33	X34	Y34	Z34	X35	Y35	Z35	X36	Y36	Z36	X37	Y37	Z37	X38	Y38	Z38	X39	Y39	Z39	X40	Y40	Z40	X41	Y41	Z41	X42	Y42	Z42	X43	Y43	Z43	X44	Y44	Z44	X45	Y45	Z45	X46	Y46	Z46	

360	1.79500	619.912	582.017	-153.162	525.647	498.280	-147.885	211.708	398.670	-185.490	190.769	461.244	-261.572	122.569	284.108	-158.014	158.227	232.119	-204.756	1113.309	610.036	-450.775	1161.693	495.565	-457.260	1188.793	173.683	-420.368	1138.961	143.301	-363.513	1350.649	131.491	-435.185	1379.376	169.551	-373.355	414.780	453.508	-157.899	495.435	563.830	-128.539	387.600	530.947	-153.548	1072.892	482.239	-467.400	1103.545	365.604	-449.674	817.563	721.825	-130.130	750.272	629.382	-153.039	697.431	626.253	-135.075	722.244	777.120	-101.384	660.187	681.873	-133.133	1070.122	844.589	-467.552	1144.126	726.776	-443.044	971.339	781.714	-486.235	1047.700	669.461	-452.542	940.480	1000.228	-163.244	740.650	1088.184	-228.265	931.385	1016.794	-425.094	737.698	1082.850	-337.092	811.848	1555.591	-297.806	903.711	1539.663	-128.739	815.938	1545.315	-482.905	965.253	1470.276	-345.910	913.828	1325.475	-21.712	799.479	1196.921	-22.627	831.275	1238.709	54.648	973.347	1273.827	-42.059	1054.417	1289.666	-115.369	1072.887	1250.269	-89.753	645.571	1400.565	-565.899	516.507	1340.593	-486.768	536.308	1385.398	-571.372	658.291	1282.301	-582.824	766.342	1239.906	-534.485	723.483	1195.725	-574.824
361	1.80000	623.371	580.372	-153.066	524.219	501.229	-146.401	208.238	417.653	-185.740	189.066	480.871	-262.050	115.000	307.287	-157.194	148.373	253.706	-203.772	1106.164	600.945	-450.518	1159.543	489.902	-457.302	1203.418	170.684	-419.714	1156.184	139.581	-360.946	1366.830	132.946	-436.141	1396.161	173.177	-375.660	411.199	462.544	-158.282	497.114	568.745	-128.703	388.333	541.440	-155.579	1070.785	473.252	-465.913	1106.987	356.396	-448.409	821.369	721.207	-130.861	754.748	627.963	-152.890	702.099	624.300	-135.201	725.421	775.256	-101.262	664.157	679.285	-132.869	1068.321	836.549	-467.106	1138.115	716.690	-441.641	967.315	777.251	-486.321	1040.155	662.416	-453.389	940.815	1000.724	-163.065	740.557	1088.420	-227.876	930.578	1016.331	-424.677	736.987	1082.637	-336.844	812.755	1555.907	-299.168	903.420	1540.342	-129.782	816.837	1544.533	-484.243	965.735	1470.425	-346.598	913.223	1327.258	-20.870	798.173	1198.868	-21.988	829.975	1240.989	54.940	972.250	1274.356	-41.917	1053.361	1289.121	-115.510	1071.620	1250.005	-89.423	646.081	1400.375	-566.457	517.622	1339.290	-487.434	537.075	1384.716	-571.531	659.234	1281.942	-583.374	767.887	1239.240	-535.082	724.926	1195.251	-575.626
362	1.80500	627.835	578.222	-152.930	523.761	504.964	-146.571	206.238	436.660	-185.793	189.448	500.548	-262.198	109.053	330.172	-156.075	139.638	275.154	-203.289	1099.210	592.225	-451.068	1156.886	484.832	-457.524	1215.138	168.776	-417.577	1170.057	136.705	-358.031	1379.669	135.216	-436.737	1408.659	177.500	-377.448	409.300	470.987	-157.616	500.379	573.492	-129.205	390.747	551.337	-158.045	1069.719	464.792	-464.363	1108.635	347.744	-447.469	825.339	719.985	-130.710	759.560	626.084	-152.719	707.210	621.905	-135.261	728.811	773.065	-101.171	668.674	676.345	-132.405	1065.865	827.830	-466.253	1131.652	706.276	-440.549	963.069	772.948	-488.655	1031.772	654.848	-454.609	941.474	1001.136	-162.988	740.275	1087.901	-227.645	929.673	1015.863	-424.399	736.681	1081.835	-336.317	813.780	1556.229	-300.755	903.224	1540.654	-130.830	818.104	1543.475	-485.345	966.259	1470.105	-347.050	912.434	1328.987	-20.091	796.244	1201.028	-21.523	827.705	1243.274	56.652	971.030	1274.266	-41.738	1052.614	1287.516	-115.402	1070.264	1248.552	-88.898	647.369	1399.544	-567.511	519.201	1337.286	-488.386	537.831	1383.675	-574.186	660.957	1280.606	-584.189	769.344	1237.856	-535.639	727.037	1193.802	-576.525
363	1.81000	633.044	575.496	-153.236	525.782	508.048	-145.588	205.791	455.488	-185.576	192.138	520.079	-262.075	104.574	353.542	-155.690	132.542	297.460	-202.429	1092.980	583.825	-452.204	1153.357	480.316	-457.645	1222.917	167.089	-415.032	1180.357	134.337	-354.335	1388.168	138.418	-436.830	1417.214	182.198	-378.830	409.956	479.434	-157.473	505.469	578.164	-130.375	395.411	560.683	-160.388	1066.099	458.254	-463.134	1108.596	339.639	-446.796	829.731	718.486	-130.644	764.788	623.823	-151.833	712.362	619.041	-134.917	732.503	770.379	-100.683	673.288	673.095	-132.108	1062.828	818.969	-465.004	1124.229	695.572	-439.163	958.395	768.203	-489.704	1022.568	647.011	-456.222	942.307	1001.176	-163.170	740.614	1087.330	-227.330	928.760	1015.379	-424.536	736.271	1080.837	-335.813	815.136	1556.230	-302.261	902.937	1540.620	-132.042	819.575	1542.290	-486.698	966.823	1469.321	-347.469	911.232	1330.649	-19.302	793.284	1203.135	-21.557	825.852	1245.090	56.217	969.592	1273.564	-41.480	1051.463	1284.946	-115.075	1068.613	1246.028	-88.013	649.001	1398.032	-568.796	521.286	1334.357	-489.780	539.561	1381.328	-575.411	663.312	1278.408	-585.195	771.921	1235.911	-536.543	729.841	1191.942	-577.501
364	1.81500	639.062	572.195	-153.357	529.704	510.497	-144.889	207.502	474.007	-185.039	197.146	539.287	-261.547	101.827	376.621	-155.705	126.116	319.653	-205.580	1087.264	576.336	-453.190	1149.154	476.386	-457.958	1227.322	165.315	-411.881	1187.176	132.478	-349.839	1393.020	140.238	-436.597	1422.083	185.987	-380.151	412.650	487.290	-157.355	512.836	582.004	-132.270	401.929	569.082	-161.974	1062.431	452.003	-461.928	1106.975	332.075	-446.336	834.000	716.442	-129.958	770.299	621.035	-150.722	717.674	615.853	-134.209	736.298	767.138	-99.721	678.119	669.585	-131.657	1058.397	810.454	-463.875	1115.729	684.897	-437.978	953.467	762.969	-491.113	1013.232	639.362	-457.445	943.013	1000.833	-163.484	740.966	1086.762	-226.847	927.627	1014.650	-424.861	735.518	1079.839	-335.355	816.310	1556.166	-303.959	903.051	1540.320	-133.159	821.418	1540.695	-487.726	967.352	1468.048	-347.883	909.633	1332.058	-18.675	790.378	1205.001	-21.328	822.951	1246.985	56.448	967.678	1272.047	-41.168	1050.413	1281.321	-114.484	1066.494	1242.285	-86.874	651.097	1395.702	-570.509	523.883	1330.998	-491.641	541.812	1378.006	-577.178	666.246	1275.459	-586.515	775.116	1233.463	-537.263	733.094	1189.499	-578.684
365	1.82000	645.933	568.243	-153.151	535.109	512.085	-144.789	211.461	491.618	-184.786	205.165	557.563	-260.945	101.146	399.496	-156.100	122.105	341.814	-205.872	1082.021	569.552	-453.668	1144.462	472.315	-458.343	1229.181	163.314	-409.065	1191.169	131.380	-345.055	1394.794	139.268	-435.706	1424.170	187.338	-381.301	417.248	494.404	-157.221	522.008	584.604	-134.038	410.124	576.532	-162.467	1058.082	446.381	-459.956	1103.878	325.043	-446.032	838.372	714.186	-129.072	776.028	617.893	-149.341	723.076	612.210	-133.312	739.849	763.840	-99.294	683.006	665.397	-131.294	1053.467	801.364	-463.291	1106.519	674.453	-437.825	947.857	757.120	-493.246	1004.304	632.736	-456.965	944.030	1000.087	-163.755	741.141	1085.996	-226.513	926.029	1013.745	-425.147	734.957	1078.357	-334.396	817.702	1555.799	-305.469	903.453	1539.685	-134.351	823.333	1538.814	-489.098	967.872	1466.306	-348.181	907.871	1333.357	-18.019	786.364	1206.696	-21.436	819.346	1248.617	56.464	965.482	1269.920	-40.660	1048.990	1276.659	-113.542	1063.854	1237.562	-85.317	653.665	1392.696	-572.545	526.621	1326.803	-493.809	544.480	1373.821	-579.395	669.718	1271.709	-587.996	778.462	1230.413	-538.144	737.182	1186.333	-579.663
366	1.82500	653.424	563.509	-152.763	541.812	512.633	-144.963	217.179	507.925	-184.262	213.999	575.302	-260.137	102.449	421.519	-156.613	120.324	363.298	-207.495	1077.146	564.627	-453.857	1138.707	468.113	-458.657	1228.391	160.353	-406.795	1191.766	130.716	-341.629	1394.275	134.356	-434.121	1424.024	185.585	-382.591	423.134	500.590	-157.165	532.425	585.837	-134.939	419.855	582.946	-162.250	1052.697	441.578	-457.128	1099.412	318.536	-445.829	842.597	711.908	-128.531	781.714	614.465	-148.510	728.840	608.237	-132.691	743.754	759.992	-97.806	688.213	660.750	-130.881	1047.687	792.987	-462.927	1097.319	664.989	-438.891	941.666	751.654	-496.330	996.587	627.450	-455.429	944.806	999.206	-164.103	740.989	1084.869	-226.129	924.584	1012.778	-425.373	733.738	1077.051	-333.522	819.011	1555.107	-307.121	903.914	1538.929	-135.619	825.448	1536.465	-490.605	968.384	1464.138	-348.462	905.395	1334.350	-17.620	782.100	1208.298	-21.463	814.726	1250.246	56.515	962.770	1267.009	-39.957	1047.507	1270.980	-112.127	1060.824	1231.716	-83.501	656.742	1388.924	-574.801	529.795	1321.929	-496.379	547.686	1369.041	-582.047	673.717	1267.371	-589.776	782.176	1226.691	-539.178	741.335	1182.538	-580.930
367	1.83000	661.541	558.445	-151.962	549.075	512.130	-145.283	225.223	522.788	-185.873	225.252	591.849	-259.176	105.806	442.881	-157.618	120.777	384.463	-209.516	1071.629	561.146	-453.548	1132.062	463.781	-458.620	1225.238	156.972	-404.956	1189.070	129.624	-338.927	1391.271	127.886	-432.519	1421.704	181.277	-383.708	430.025	506.215	-157.074	543.419	585.899	-135.351	430.638	588.306	-161.488	1046.354	436.615	-453.470	1093.683	312.545	-445.671	847.101	709.327	-128.938	787.853	610.750	-148.028	735.148	603.707	-132.121	747.399	755.760	-97.559	693.750	655.484	-130.368	1041.427	785.589	-462.678	1090.322	656.854	-440.641	935.386	744.777	-499.884	990.208	624.131	-453.856	945.483	997.937	-164.630	740.919	1083.410	-225.443	923.100	1011.578	-425.534	732.843	1075.004	-332.168	820.269	1554.195	-308.673	904.376	1537.650	-136.943	827.717	1533.650	-492.240	968.847	1461.656	-348.693	902.788	1335.238	-17.286	777.297	1209.595	-21.904	810.158	1251.481	56.204	959.823	1263.491	-39.047	1045.435	1264.620	-110.384	1057.337	1224.998	-81.264	660.052	1384.325	-577.358	533.004	1316.739	-499.350	551.934	1363.127	-584.986	677.981	1262.328	-591.702	787.024	1222.740	-540.376	746.210	1178.359	-582.231
